<svg width="300" height="300" viewBox="0 0 300 300" fill="none" xmlns="http://www.w3.org/2000/svg">
<g clip-path="url(#clip0_1019_946)">
<path d="M0 129.84C0 22.9168 22.9168 0 129.84 0H170.16C277.083 0 300 22.9168 300 129.84V170.16C300 277.083 277.083 300 170.16 300H129.84C22.9168 300 0 277.083 0 170.16V129.84Z" fill="url(#paint0_linear_1019_946)"/>
<mask id="mask0_1019_946" style="mask-type:alpha" maskUnits="userSpaceOnUse" x="40" y="53" width="220" height="195">
<path fill-rule="evenodd" clip-rule="evenodd" d="M150.228 53.0002C147.999 52.9707 146.515 55.5738 143.547 60.78L43.9207 235.529C40.7871 241.026 39.2203 243.774 40.3841 245.859C41.5479 247.944 44.6486 247.944 50.85 247.944H74.6268C76.7643 247.944 77.833 247.944 78.7132 247.428C79.5935 246.912 80.1366 245.966 81.2228 244.076L169.364 90.6632C170.525 88.6421 171.105 87.6315 171.099 86.5058C171.093 85.3801 170.5 84.352 169.316 82.2957L157.024 60.9589C153.979 55.6729 152.457 53.0298 150.228 53.0002ZM156.819 133.193C156.806 134.334 157.398 135.359 158.58 137.409L184.284 181.974H130.801V181.974L99.9617 235.405C96.7821 240.914 95.1923 243.668 96.354 245.763C97.5158 247.857 100.633 247.857 106.868 247.857H131.789C133.888 247.857 134.938 247.857 135.808 247.357C136.678 246.856 137.226 245.936 138.321 244.097L152.267 220.682H206.611L220.142 244.142C221.231 246.03 221.776 246.974 222.656 247.489C223.537 248.003 224.606 248.002 226.743 247.999L249.228 247.965C255.373 247.956 258.445 247.951 259.609 245.881C260.773 243.81 259.241 241.075 256.178 235.604L184.619 107.812C181.704 102.606 180.246 100.003 178.024 100.009C175.801 100.016 174.255 102.627 171.162 107.851L158.672 128.943C157.445 131.015 156.831 132.052 156.819 133.193Z" fill="#407BFF"/>
</mask>
<g mask="url(#mask0_1019_946)">
<path d="M34.7856 49.1111H266.183V248.928H34.7856V49.1111Z" fill="white"/>
</g>
</g>
<defs>
<linearGradient id="paint0_linear_1019_946" x1="330.761" y1="-56" x2="12.2024" y2="321.583" gradientUnits="userSpaceOnUse">
<stop stop-color="#A384FD"/>
<stop offset="0.552083" stop-color="#6C7FFE"/>
<stop offset="1" stop-color="#407BFF"/>
</linearGradient>
<clipPath id="clip0_1019_946">
<rect width="300" height="300" fill="white"/>
</clipPath>
</defs>
</svg>
